<?xml version="1.0" standalone="no"?>
<!DOCTYPE svg PUBLIC "-//W3C//DTD SVG 20010904//EN"
 "http://www.w3.org/TR/2001/REC-SVG-20010904/DTD/svg10.dtd">
<svg version="1.0" xmlns="http://www.w3.org/2000/svg"
 width="1080.000000pt" height="1080.000000pt" viewBox="0 0 1080.000000 1080.000000"
 preserveAspectRatio="xMidYMid meet">
<metadata>
Created by potrace 1.14, written by Peter Selinger 2001-2017
</metadata>
<g transform="translate(0.000000,1080.000000) scale(0.100000,-0.100000)"
fill="#000000" stroke="none">
<path d="M5360 10430 c0 -5 -6 -10 -14 -10 -8 0 -16 -4 -18 -8 -1 -4 -32 -28
-68 -52 -36 -25 -69 -49 -75 -53 -8 -6 -346 -243 -395 -277 -178 -122 -278
-192 -290 -203 -8 -7 -36 -26 -62 -43 -27 -16 -48 -32 -48 -36 0 -5 -4 -8 -10
-8 -9 0 -147 -92 -181 -121 -9 -8 -23 -18 -32 -24 -66 -41 -186 -128 -207
-150 l-25 -27 0 -4513 c0 -3613 3 -4517 13 -4527 9 -9 113 -12 455 -13 243 0
452 2 465 4 12 2 27 12 33 22 6 12 9 427 9 1186 -1 643 -1 1408 -2 1702 0 457
2 535 15 548 12 13 82 15 472 15 412 0 459 -1 473 -16 16 -15 17 -150 18
-1714 0 -933 4 -1707 8 -1720 4 -12 13 -22 19 -23 7 -1 216 -2 466 -3 l453 -1
18 22 c16 21 17 265 16 4520 -1 3314 -5 4503 -13 4518 -11 20 -44 50 -75 70
-9 6 -45 30 -80 54 -34 24 -99 69 -143 99 -44 31 -103 73 -132 94 -29 21 -57
38 -63 38 -5 0 -10 4 -10 8 0 4 -15 16 -32 27 -18 10 -35 21 -38 24 -12 14
-99 71 -108 71 -6 0 -12 4 -14 8 -3 9 -170 128 -246 177 -9 6 -21 15 -28 20
-6 6 -80 57 -163 115 -84 58 -184 128 -222 155 -47 34 -81 52 -104 53 -19 2
-35 -2 -35 -8z m-50 -2278 l0 -1038 -33 1 c-18 1 -38 4 -45 9 -7 4 -12 3 -12
-2 0 -9 -83 -7 -99 2 -5 4 -12 3 -14 -1 -4 -6 -136 -8 -189 -4 -10 1 -10 1782
0 1798 4 7 82 64 172 127 91 63 174 122 185 130 10 9 23 16 27 16 4 0 8 -467
8 -1038z m340 930 c80 -56 162 -113 182 -127 23 -16 41 -38 46 -58 5 -18 8
-426 8 -907 l-1 -875 -35 0 c-19 0 -41 4 -47 9 -7 4 -13 5 -13 0 0 -7 -163
-11 -180 -4 -3 1 -9 1 -15 0 -30 -7 -98 -4 -103 5 -12 18 -8 2066 3 2061 6 -2
76 -49 155 -104z m-342 -3200 c1 -584 -1 -1062 -5 -1063 -5 -1 -88 -2 -186 -3
-117 -1 -184 2 -194 9 -13 10 -15 137 -14 1060 1 594 5 1051 10 1055 5 3 94 5
198 4 l188 0 3 -1062z m560 1059 c17 -1 18 -45 20 -1023 1 -563 -1 -1037 -4
-1055 -3 -19 -12 -34 -23 -38 -27 -8 -360 -9 -369 -1 -4 4 -7 482 -7 1061 l0
1054 25 3 c21 3 303 2 358 -1z"/>
<path d="M3435 9085 c-66 -46 -124 -88 -130 -92 -5 -4 -41 -30 -80 -56 -38
-26 -115 -79 -170 -118 -55 -38 -140 -97 -190 -131 -49 -34 -109 -76 -131 -92
-23 -17 -72 -51 -108 -76 -37 -25 -75 -52 -86 -60 -10 -8 -55 -40 -100 -70
-76 -52 -279 -193 -345 -240 -177 -126 -589 -410 -595 -410 -5 0 -10 -3 -12
-7 -3 -8 -15 -17 -108 -80 -30 -21 -59 -41 -65 -46 -5 -4 -77 -54 -160 -111
-82 -58 -170 -119 -195 -136 -25 -17 -101 -71 -169 -118 -68 -48 -132 -98
-143 -112 -18 -25 -18 -77 -18 -1645 0 -1455 2 -1621 15 -1631 12 -9 261 -12
943 -12 510 0 937 -1 949 -1 54 -2 52 71 50 -1247 -1 -940 -4 -1219 -13 -1232
-11 -15 -56 -17 -478 -18 -445 -2 -467 -1 -476 17 -7 11 -10 275 -9 730 0 510
-3 715 -11 723 -7 7 -149 11 -481 10 -400 0 -472 -2 -480 -14 -5 -9 -9 -507
-9 -1223 0 -1186 0 -1208 19 -1215 11 -4 666 -7 1456 -7 1319 0 1438 2 1449
17 9 12 12 523 11 2212 0 2040 -1 2196 -17 2212 -15 15 -51 17 -370 15 -1167
-7 -1525 -7 -1545 0 l-23 8 1 890 0 890 32 28 c18 15 59 46 92 68 33 22 65 45
72 50 6 6 48 35 92 65 45 30 128 87 184 127 56 39 122 86 147 103 111 77 186
130 197 140 7 5 16 10 22 10 5 0 11 3 13 8 3 8 113 82 121 82 3 0 5 -323 6
-717 0 -650 1 -718 16 -729 12 -9 132 -12 453 -12 240 0 449 2 464 4 16 3 30
14 35 27 8 24 11 3307 3 3307 -3 0 -59 -38 -125 -85z"/>
<path d="M7230 4787 c0 -3722 2 -4386 14 -4402 13 -18 34 -19 485 -19 259 0
473 3 477 6 3 4 6 291 5 640 0 348 0 1056 -1 1573 0 1312 -2 1217 15 1239 12
16 29 18 182 17 189 -1 371 -1 579 1 156 1 182 -4 193 -35 4 -12 7 -784 7
-1716 -1 -1571 0 -1696 16 -1710 14 -14 74 -16 478 -16 423 1 463 2 475 18 10
13 12 712 11 3376 -1 3193 -2 3360 -19 3378 -9 11 -43 37 -75 59 -31 21 -59
41 -62 44 -3 3 -41 29 -85 59 -44 30 -81 58 -83 63 -2 4 -8 8 -12 8 -5 0 -53
31 -107 69 -54 38 -170 118 -258 179 -88 61 -165 115 -171 120 -34 29 -96 64
-102 58 -4 -4 -7 -669 -7 -1476 0 -1311 -2 -1471 -15 -1485 -14 -13 -76 -16
-465 -18 -248 -2 -458 -1 -467 1 -9 2 -19 11 -23 19 -3 9 -5 356 -5 772 3
2632 2 2872 -11 2887 -7 9 -40 34 -74 57 -33 22 -62 43 -65 46 -3 3 -13 11
-22 16 -19 11 -299 205 -448 310 -54 39 -135 95 -180 125 -44 30 -100 70 -125
88 -24 17 -46 32 -49 32 -3 0 -5 -1972 -6 -4383z"/>
</g>
</svg>
